<?xml version="1.0" encoding="utf-8"?>
<!-- Generator: Adobe Illustrator 16.0.0, SVG Export Plug-In . SVG Version: 6.00 Build 0)  -->
<!DOCTYPE svg PUBLIC "-//W3C//DTD SVG 1.1//EN" "http://www.w3.org/Graphics/SVG/1.1/DTD/svg11.dtd">
<svg version="1.1" id="Layer_1" xmlns="http://www.w3.org/2000/svg" xmlns:xlink="http://www.w3.org/1999/xlink" x="0px" y="0px"
	 width="60px" height="60px" viewBox="0 0 60 60" style="enable-background:new 0 0 60 60;" xml:space="preserve">
<style type="text/css">
<![CDATA[
	.st0{fill:none;stroke:#231F20;stroke-width:1.5;stroke-linecap:round;stroke-linejoin:round;stroke-miterlimit:10;}
]]>
</style>
<g>
	<g>
		<g>
			<g>
				<g>
					<g>
						<g>
							<g>
								<g>
									<g>
										<path class="st0" d="M11.771,37.033c0.996,1.347,2.31,2.979,3.624,4.196c2.678,2.479,7.574,4.706,7.574,4.706
											l12.039,7.084c0.696,0.367,1.753,0.232,2.245-0.565c0.411-0.668,0.262-1.527-0.301-2.1l2.523,1.672
											c0.794,0.474,2.042,0.384,2.667-0.52c0.424-0.614,0.431-1.4,0.085-2.053c-0.163-0.309-0.702-0.834-0.702-0.834
											l1.025,0.583c0.84,0.484,2.149,0.366,2.79-0.591c0.641-0.96,0.323-2.297-0.71-2.988l-0.958-0.629
											c0.764,0.207,1.609-0.061,2.096-0.743c0.626-0.877,0.422-2.094-0.837-2.995l-11.2-7.649
											c-0.166-0.117-0.972-0.678-1.992-1.336l-1.722-1.458l0.021-0.158c1.272-0.046,3.289-0.047,3.961,0.373 M30.056,26.363
											c-2.477-0.186-6.085-1.164-6.969-1.363 M22.969,45.935c0.004,0.002,0.007,0.005,0.011,0.007L22.969,45.935z"/>
									</g>
								</g>
							</g>
						</g>
					</g>
				</g>
			</g>
			<g>
				<path class="st0" d="M37.96,24.729l-1.071,0.366c-0.885,0.2-5.563,1.241-8.04,1.426c-1.737,0.131-2.185,0.674-2.185,0.674
					l-3.519,2.407l-0.54,0.434c0,0,1.213,2.519,3.661,0.993c0.672-0.42,2.69-0.419,3.962-0.373 M44.873,41.229
					c1.125-1.042,2.25-2.389,3.175-3.6 M15.335,41.257c-1.259,0.901-1.463,2.118-0.837,2.995c0.486,0.682,1.332,0.95,2.096,0.742
					l-0.957,0.629c-1.035,0.69-1.352,2.028-0.71,2.988c0.641,0.958,1.949,1.076,2.79,0.591l1.843-1.153l-0.802,0.602
					c-0.975,0.672-1.257,1.952-0.632,2.856c0.625,0.904,1.873,0.994,2.667,0.52l2.522-1.672c-0.562,0.573-0.711,1.432-0.3,2.1
					c0.491,0.797,1.549,0.932,2.245,0.565l4.926-2.898"/>
			</g>
			<g>
				<path class="st0" d="M1,29.399l9.755,8.202c0.971,0.756,12.465-14.014,11.493-14.768L2.184,6.786"/>
				<g>
					<g>
						<path class="st0" d="M57.893,6.873L38.326,22.526C37.355,23.281,48.849,38.05,49.82,37.294L59,29.533"/>
					</g>
				</g>
			</g>
		</g>
	</g>
	<line class="st0" x1="43.673" y1="44.995" x2="30.882" y2="36.365"/>
	<line class="st0" x1="41.542" y1="48.653" x2="27.599" y2="39.36"/>
	<line class="st0" x1="36.935" y1="50.352" x2="24.508" y2="42.086"/>
	<line class="st0" x1="16.594" y1="44.995" x2="18.671" y2="43.68"/>
	<line class="st0" x1="19.56" y1="48.05" x2="22.969" y2="45.935"/>
	<line class="st0" x1="23.314" y1="50.355" x2="26.771" y2="48.2"/>
</g>
</svg>
