<?xml version="1.0" encoding="utf-8"?>
<!-- Generator: Adobe Illustrator 16.0.3, SVG Export Plug-In . SVG Version: 6.00 Build 0)  -->
<!DOCTYPE svg PUBLIC "-//W3C//DTD SVG 1.1//EN" "http://www.w3.org/Graphics/SVG/1.1/DTD/svg11.dtd">
<svg version="1.1" id="Layer_1" xmlns="http://www.w3.org/2000/svg" xmlns:xlink="http://www.w3.org/1999/xlink" x="0px" y="0px"
	 width="60px" height="60px" viewBox="0 0 60 60" enable-background="new 0 0 60 60" xml:space="preserve">
<g>
	<path fill="#231F20" d="M56.059,57.053h-2.273V23.101c0-0.813-0.66-1.474-1.475-1.474h-7.152c-0.814,0-1.473,0.66-1.473,1.474
		v33.952h-2.164V28.481c0-0.814-0.658-1.474-1.473-1.474h-7.152c-0.814,0-1.475,0.659-1.475,1.474v28.571H29.43V36.726
		c0-0.814-0.658-1.474-1.473-1.474h-7.154c-0.814,0-1.473,0.659-1.473,1.474v20.327h-2.332V45.234c0-0.814-0.66-1.474-1.475-1.474
		H8.369c-0.812,0-1.473,0.659-1.473,1.474v11.818H3.941c-0.814,0-1.473,0.66-1.473,1.474C2.469,59.341,3.127,60,3.941,60h4.428
		h7.154h5.279h7.154h4.939h7.152h5.109h7.152h3.748c0.814,0,1.473-0.659,1.473-1.474C57.531,57.713,56.873,57.053,56.059,57.053z
		 M9.844,57.053V46.708h4.207v10.345H9.844z M22.277,57.053V38.199h4.205v18.854H22.277z M34.369,57.053V29.955h4.205v27.098H34.369
		z M46.633,57.053V24.574h4.205v32.479H46.633z"/>
	<path fill="#231F20" d="M10.393,33.639c0.303,0,0.609-0.094,0.873-0.287L47.43,6.705L45.129,18.86l2.898,0.545l3.287-17.391
		L33.729,0l-0.338,2.93l12.285,1.405L9.518,30.979c-0.656,0.483-0.795,1.405-0.312,2.061C9.494,33.432,9.939,33.639,10.393,33.639z"
		/>
</g>
</svg>
