<?xml version="1.0" encoding="utf-8"?>
<!-- Generator: Adobe Illustrator 16.0.3, SVG Export Plug-In . SVG Version: 6.00 Build 0)  -->
<!DOCTYPE svg PUBLIC "-//W3C//DTD SVG 1.1//EN" "http://www.w3.org/Graphics/SVG/1.1/DTD/svg11.dtd">
<svg version="1.1" id="Layer_1" xmlns="http://www.w3.org/2000/svg" xmlns:xlink="http://www.w3.org/1999/xlink" x="0px" y="0px"
	 width="60px" height="60px" viewBox="0 0 60 60" enable-background="new 0 0 60 60" xml:space="preserve">
<g>
	<path fill="#231F20" d="M57.63,0H2.37C1.183,0,0.22,0.963,0.22,2.15V57.85c0,1.188,0.963,2.15,2.15,2.15h55.26
		c1.188,0,2.15-0.963,2.15-2.15V2.15C59.78,0.963,58.817,0,57.63,0z M48.394,9.666c0.961,0,1.742,0.781,1.742,1.741
		s-0.781,1.74-1.742,1.74c-0.959,0-1.74-0.78-1.74-1.74S47.435,9.666,48.394,9.666z M39.668,9.666c0.959,0,1.74,0.781,1.74,1.741
		s-0.781,1.74-1.74,1.74c-0.96,0-1.74-0.78-1.74-1.74S38.708,9.666,39.668,9.666z M30.421,9.666c0.959,0,1.738,0.781,1.738,1.741
		s-0.779,1.74-1.738,1.74c-0.961,0-1.741-0.78-1.741-1.74S29.46,9.666,30.421,9.666z M20.83,9.666c0.959,0,1.74,0.781,1.74,1.741
		s-0.781,1.74-1.74,1.74c-0.959,0-1.739-0.78-1.739-1.74S19.871,9.666,20.83,9.666z M11.582,9.666c0.959,0,1.739,0.781,1.739,1.741
		s-0.78,1.74-1.739,1.74s-1.74-0.78-1.74-1.74S10.623,9.666,11.582,9.666z M55.479,55.699H4.521V4.301h6.345v4.02
		c-1.404,0.327-2.457,1.583-2.457,3.085c0,1.75,1.423,3.174,3.173,3.174c1.75,0,3.173-1.424,3.173-3.174
		c0-1.502-1.052-2.758-2.456-3.085v-4.02h7.815v4.02c-1.405,0.327-2.457,1.583-2.457,3.085c0,1.75,1.423,3.174,3.173,3.174
		c1.75,0,3.174-1.424,3.174-3.174c0-1.502-1.052-2.758-2.456-3.085V4.301h8.154v4.021c-1.404,0.327-2.457,1.583-2.457,3.085
		c0,1.75,1.424,3.174,3.175,3.174c1.749,0,3.172-1.424,3.172-3.174c0-1.503-1.053-2.759-2.457-3.086v-4.02h7.815v4.02
		c-1.404,0.327-2.457,1.583-2.457,3.085c0,1.75,1.424,3.174,3.174,3.174s3.174-1.424,3.174-3.174c0-1.502-1.053-2.758-2.457-3.085
		v-4.02h7.292v4.02c-1.404,0.327-2.457,1.583-2.457,3.085c0,1.75,1.424,3.174,3.174,3.174c1.751,0,3.176-1.424,3.176-3.174
		c0-1.502-1.053-2.758-2.459-3.085v-4.02h6.369V55.699z"/>
	<path fill="#231F20" d="M48.829,22.329H11.17c-0.594,0-1.075,0.481-1.075,1.075s0.481,1.075,1.075,1.075h37.659
		c0.594,0,1.075-0.481,1.075-1.075S49.423,22.329,48.829,22.329z"/>
	<path fill="#231F20" d="M48.829,30.276H11.17c-0.594,0-1.075,0.481-1.075,1.075s0.481,1.075,1.075,1.075h37.659
		c0.594,0,1.075-0.481,1.075-1.075S49.423,30.276,48.829,30.276z"/>
	<path fill="#231F20" d="M48.829,46.605H11.17c-0.594,0-1.075,0.481-1.075,1.075s0.481,1.075,1.075,1.075h37.659
		c0.594,0,1.075-0.481,1.075-1.075S49.423,46.605,48.829,46.605z"/>
	<path fill="#231F20" d="M48.829,38.544H11.17c-0.594,0-1.075,0.481-1.075,1.075s0.481,1.075,1.075,1.075h37.659
		c0.594,0,1.075-0.481,1.075-1.075S49.423,38.544,48.829,38.544z"/>
</g>
</svg>
