<?xml version="1.0" encoding="utf-8"?>
<!-- Generator: Adobe Illustrator 16.0.3, SVG Export Plug-In . SVG Version: 6.00 Build 0)  -->
<!DOCTYPE svg PUBLIC "-//W3C//DTD SVG 1.1//EN" "http://www.w3.org/Graphics/SVG/1.1/DTD/svg11.dtd">
<svg version="1.1" id="Layer_1" xmlns="http://www.w3.org/2000/svg" xmlns:xlink="http://www.w3.org/1999/xlink" x="0px" y="0px"
	 width="60px" height="60px" viewBox="0 0 60 60" enable-background="new 0 0 60 60" xml:space="preserve">
<g>
	<path fill="#231F20" d="M59.431,0.553c-0.526-0.521-1.304-0.689-1.997-0.439C56.886,0.312,43.978,4.996,39.99,7.708
		c-3.49,2.373-8.674,7.236-13.892,12.501c-1.399-0.707-3.483-1.572-5.325-1.572c-6.807,0-17.881,12.619-19.121,14.058
		c-0.358,0.416-0.411,1.016-0.129,1.488c0.233,0.392,0.654,0.622,1.097,0.622c0.091,0,0.183-0.01,0.274-0.03l11.812-2.603
		c-4.115,4.462-7.079,7.812-7.41,8.186c-0.669,0.759-0.633,1.907,0.082,2.622l1.248,1.248c-1.884,0.027-3.652,0.771-4.986,2.105
		c-2.517,2.518-3.336,10.671-3.475,12.28c-0.031,0.375,0.104,0.746,0.369,1.013C0.775,59.866,1.102,60,1.438,60
		c0.036,0,0.073-0.002,0.11-0.005c1.608-0.139,9.764-0.957,12.279-3.474c1.336-1.335,2.078-3.104,2.105-4.987l1.23,1.23
		c0.372,0.373,0.862,0.562,1.354,0.562c0.451,0,0.902-0.159,1.266-0.478c0.38-0.335,3.807-3.358,8.35-7.54l-2.655,12.048
		c-0.118,0.538,0.12,1.09,0.593,1.372c0.203,0.121,0.429,0.18,0.654,0.18c0.299,0,0.596-0.104,0.834-0.31
		c1.438-1.24,14.057-12.313,14.057-19.119c0-1.895-0.914-4.048-1.633-5.446c5.258-5.211,10.106-10.39,12.459-13.888
		c2.706-4.022,7.26-17.048,7.451-17.601C60.137,1.848,59.956,1.071,59.431,0.553z M12.022,54.716
		c-1.241,1.241-5.765,2.155-9.148,2.571c0.417-3.384,1.331-7.906,2.571-9.148c0.879-0.878,2.047-1.362,3.289-1.362
		s2.41,0.484,3.288,1.362c0.878,0.879,1.362,2.046,1.362,3.288S12.9,53.838,12.022,54.716z M6.297,31.41
		C10.445,27.112,17,21.19,20.773,21.19c1.04,0,2.328,0.445,3.432,0.943c-2.223,2.277-4.412,4.58-6.445,6.751L6.297,31.41z
		 M18.596,48.779l-7.229-7.229c0.409-0.457,0.921-1.027,1.509-1.677l7.377,7.422C19.611,47.871,19.048,48.376,18.596,48.779z
		 M39.062,39.479c0,3.772-5.923,10.328-10.221,14.476l2.577-11.695c2.14-2.001,4.405-4.155,6.644-6.338
		C38.582,37.052,39.062,38.399,39.062,39.479z M49.264,18.008c-4.688,6.971-20.585,21.672-28.062,28.431l-7.469-7.514
		c6.779-7.48,21.47-23.329,28.412-28.05c2.207-1.501,8.268-3.989,12.728-5.71C53.196,9.663,50.76,15.783,49.264,18.008z"/>
	<path fill="#231F20" d="M36.084,19.914c0,2.347,1.908,4.256,4.255,4.256s4.256-1.909,4.256-4.256s-1.909-4.256-4.256-4.256
		S36.084,17.567,36.084,19.914z M43.318,19.914c0,1.643-1.336,2.979-2.979,2.979c-1.643,0-2.979-1.336-2.979-2.979
		s1.336-2.979,2.979-2.979C41.982,16.936,43.318,18.271,43.318,19.914z"/>
</g>
</svg>
